<svg width="222" height="84" viewBox="0 0 222 84" fill="none" xmlns="http://www.w3.org/2000/svg">
<path d="M221.721 0H0V84H221.721V0Z" fill="white"/>
<path d="M73.52 52V32.008H77.748V48.5H85.868V52H73.52ZM100.86 52H89.352V32.008H100.86V35.48H93.58V39.876H100.356V43.348H93.58V48.5H100.86V52ZM110.844 32.008C112.655 32.008 114.148 32.232 115.324 32.68C116.5 33.1093 117.377 33.772 117.956 34.668C118.535 35.5453 118.824 36.656 118.824 38C118.824 38.9147 118.647 39.7173 118.292 40.408C117.956 41.08 117.499 41.6587 116.92 42.144C116.36 42.6107 115.753 42.9933 115.1 43.292L120.98 52H116.276L111.516 44.328H109.248V52H105.02V32.008H110.844ZM110.536 35.48H109.248V40.884H110.62C111.553 40.884 112.309 40.7813 112.888 40.576C113.467 40.3707 113.887 40.0627 114.148 39.652C114.409 39.2227 114.54 38.7093 114.54 38.112C114.54 37.4773 114.391 36.9733 114.092 36.6C113.812 36.208 113.373 35.928 112.776 35.76C112.197 35.5733 111.451 35.48 110.536 35.48ZM129.328 32.008C131.139 32.008 132.632 32.232 133.808 32.68C134.984 33.1093 135.862 33.772 136.44 34.668C137.019 35.5453 137.308 36.656 137.308 38C137.308 38.9147 137.131 39.7173 136.776 40.408C136.44 41.08 135.983 41.6587 135.404 42.144C134.844 42.6107 134.238 42.9933 133.584 43.292L139.464 52H134.76L130 44.328H127.732V52H123.504V32.008H129.328ZM129.02 35.48H127.732V40.884H129.104C130.038 40.884 130.794 40.7813 131.372 40.576C131.951 40.3707 132.371 40.0627 132.632 39.652C132.894 39.2227 133.024 38.7093 133.024 38.112C133.024 37.4773 132.875 36.9733 132.576 36.6C132.296 36.208 131.858 35.928 131.26 35.76C130.682 35.5733 129.935 35.48 129.02 35.48ZM159.713 52H154.337L145.629 36.88H145.517C145.535 37.3467 145.554 37.8227 145.573 38.308C145.591 38.7747 145.61 39.2507 145.629 39.736C145.666 40.2027 145.694 40.6787 145.713 41.164C145.731 41.6307 145.75 42.1067 145.769 42.592V52H141.989V32.008H147.337L156.017 46.988H156.101C156.082 46.5213 156.063 46.064 156.045 45.616C156.026 45.1493 156.007 44.692 155.989 44.244C155.989 43.7773 155.979 43.32 155.961 42.872C155.942 42.4053 155.923 41.9387 155.905 41.472V32.008H159.713V52ZM176.274 52H164.766V32.008H176.274V35.48H168.994V39.876H175.77V43.348H168.994V48.5H176.274V52ZM197.01 41.808C197.01 44.048 196.581 45.924 195.722 47.436C194.863 48.948 193.613 50.0867 191.97 50.852C190.346 51.6173 188.386 52 186.09 52H180.434V32.008H186.706C188.797 32.008 190.607 32.3813 192.138 33.128C193.687 33.8747 194.882 34.976 195.722 36.432C196.581 37.8693 197.01 39.6613 197.01 41.808ZM192.614 41.92C192.614 40.4453 192.399 39.232 191.97 38.28C191.541 37.328 190.897 36.628 190.038 36.18C189.198 35.7133 188.162 35.48 186.93 35.48H184.662V48.5H186.482C188.554 48.5 190.094 47.9493 191.102 46.848C192.11 45.7467 192.614 44.104 192.614 41.92Z" fill="#5A5858"/>
<line x1="37.9448" y1="47.551" x2="37.9448" y2="20" stroke="#69D8BD" stroke-width="5"/>
<line x1="29.9429" y1="56.7349" x2="29.9429" y2="20.0002" stroke="#69D8BD" stroke-width="5"/>
<line x1="32.4429" y1="54.2349" x2="67.9984" y2="54.2349" stroke="#69D8BD" stroke-width="5"/>
<line x1="28" y1="62.5" x2="67.1111" y2="62.5" stroke="#69D8BD" stroke-width="5"/>
<line x1="28.1338" y1="21.6328" x2="40.5782" y2="21.6328" stroke="#69D8BD" stroke-width="5"/>
<line x1="65.5" y1="65" x2="65.5" y2="55.8163" stroke="#69D8BD" stroke-width="5"/>
</svg>
